# xmcd
#
# Track frame offsets:
#	150
#	12560
#	26025
#	40975
#	50325
#	64920
#	81450
#	93700
#	110670
#	123220
#	135305
#	149585
#
# Disc length: 2190 seconds
#
# Revision: 1
# Processed by: cddbd v1.5.1PL0 Copyright (c) Steve Scherf et al.
# Submitted via: audiograbber 1.82.02
#
DISCID=af088c0c
DTITLE=Rick and Thel Carey - On Tour
DYEAR=1900
DGENRE=Country
TTITLE0=Sticking Together
TTITLE1=Barbie Doll
TTITLE2=When The Lights Go Out
TTITLE3=Tonight We're Gonna Do It
TTITLE4=Pine Mountain Dance
TTITLE5=I've Got Rosie
TTITLE6=The Lesson
TTITLE7=A Different Kind Of Ringer
TTITLE8=Time To Say Goodbye
TTITLE9=Why
TTITLE10=Shining Roofs Of Home
TTITLE11=The Carousel
EXTD=
EXTT0=
EXTT1=
EXTT2=
EXTT3=
EXTT4=
EXTT5=
EXTT6=
EXTT7=
EXTT8=
EXTT9=
EXTT10=
EXTT11=
PLAYORDER=
